<svg width="38" height="38" viewBox="0 0 38 38" fill="none" xmlns="http://www.w3.org/2000/svg">
<g id="Frame" clip-path="url(#clip0_6_65)">
<path id="Vector" d="M19 0C8.50547 0 0 8.50547 0 19C0 29.4945 8.50547 38 19 38C29.4945 38 38 29.4945 38 19C38 8.50547 29.4945 0 19 0ZM24.9375 12.4688C26.8427 12.4688 29.0819 13.7216 29.3787 15.5956C29.5046 16.4209 28.5341 16.9501 27.9137 16.3934L27.2037 15.7626C26.1075 14.7888 23.7792 14.7888 22.683 15.7626L21.902 16.4023C21.2819 16.9497 20.3025 16.4209 20.428 15.5948C20.7887 13.723 23.0301 12.4688 24.9375 12.4688ZM11.8676 11.875C13.1887 11.875 14.25 12.9363 14.25 14.25C14.25 15.5637 13.1887 16.625 11.8676 16.625C10.5613 16.625 9.5 15.5711 9.5 14.25C9.5 12.9289 10.5613 11.875 11.8676 11.875ZM19.5938 32.0625H18.3395C12.8577 32.0625 8.32734 27.9805 7.6668 22.7109C7.63711 22.0059 8.20117 21.375 8.91367 21.375H29.0863C29.801 21.375 30.3621 21.9966 30.2716 22.7109C29.5465 27.9805 25.0785 32.0625 19.5938 32.0625Z" fill="black"/>
</g>
<defs>
<clipPath id="clip0_6_65">
<rect width="38" height="38" fill="white"/>
</clipPath>
</defs>
</svg>
