<svg width="37" height="37" viewBox="0 0 37 37" fill="none" xmlns="http://www.w3.org/2000/svg">
<g id="Frame" clip-path="url(#clip0_6_59)">
<path id="Vector" d="M18.5 37C8.28164 37 0 28.7184 0 18.5C0 8.28164 8.28164 0 18.5 0C28.7184 0 37 8.28164 37 18.5C37 28.7184 28.7184 37 18.5 37ZM16.7656 18.5C16.7656 19.0781 17.0547 19.6201 17.5389 19.8803L24.4764 24.5053C25.2713 25.0979 26.348 24.8811 26.8178 24.0861C27.4104 23.2912 27.1936 22.2145 26.3986 21.6797L20.2344 17.575V8.67188C20.2344 7.71074 19.4611 6.9375 18.435 6.9375C17.5389 6.9375 16.7006 7.71074 16.7006 8.67188L16.7656 18.5Z" fill="black"/>
</g>
<defs>
<clipPath id="clip0_6_59">
<rect width="37" height="37" fill="white"/>
</clipPath>
</defs>
</svg>
